<mxfile host="app.diagrams.net" agent="Mozilla/5.0 (X11; Linux x86_64) AppleWebKit/537.36 (KHTML, like Gecko) Chrome/126.0.0.0 Safari/537.36" version="25.0.3">
  <diagram name="Page-1" id="JrDJzqjERFtei48s2s1P">
    <mxGraphModel dx="578" dy="342" grid="1" gridSize="10" guides="1" tooltips="1" connect="1" arrows="1" fold="1" page="1" pageScale="1" pageWidth="850" pageHeight="1100" math="0" shadow="0">
      <root>
        <mxCell id="0" />
        <mxCell id="1" parent="0" />
        <mxCell id="DBiApwoINS6CAszhb8eR-6" style="edgeStyle=orthogonalEdgeStyle;rounded=0;orthogonalLoop=1;jettySize=auto;html=1;entryX=0;entryY=0.5;entryDx=0;entryDy=0;" edge="1" parent="1" source="DBiApwoINS6CAszhb8eR-1" target="DBiApwoINS6CAszhb8eR-4">
          <mxGeometry relative="1" as="geometry" />
        </mxCell>
        <mxCell id="DBiApwoINS6CAszhb8eR-1" value="" style="ellipse;whiteSpace=wrap;html=1;aspect=fixed;fillColor=none;" vertex="1" parent="1">
          <mxGeometry x="120" y="130" width="80" height="80" as="geometry" />
        </mxCell>
        <mxCell id="DBiApwoINS6CAszhb8eR-8" style="edgeStyle=orthogonalEdgeStyle;rounded=0;orthogonalLoop=1;jettySize=auto;html=1;entryX=0;entryY=0.5;entryDx=0;entryDy=0;" edge="1" parent="1" source="DBiApwoINS6CAszhb8eR-2" target="DBiApwoINS6CAszhb8eR-3">
          <mxGeometry relative="1" as="geometry" />
        </mxCell>
        <mxCell id="DBiApwoINS6CAszhb8eR-2" value="" style="ellipse;whiteSpace=wrap;html=1;aspect=fixed;fillColor=none;" vertex="1" parent="1">
          <mxGeometry x="120" y="320" width="80" height="80" as="geometry" />
        </mxCell>
        <mxCell id="DBiApwoINS6CAszhb8eR-3" value="" style="ellipse;whiteSpace=wrap;html=1;aspect=fixed;fillColor=none;" vertex="1" parent="1">
          <mxGeometry x="340" y="320" width="80" height="80" as="geometry" />
        </mxCell>
        <mxCell id="DBiApwoINS6CAszhb8eR-4" value="" style="ellipse;whiteSpace=wrap;html=1;aspect=fixed;fillColor=none;" vertex="1" parent="1">
          <mxGeometry x="340" y="130" width="80" height="80" as="geometry" />
        </mxCell>
        <mxCell id="DBiApwoINS6CAszhb8eR-5" value="" style="ellipse;whiteSpace=wrap;html=1;aspect=fixed;fillColor=none;" vertex="1" parent="1">
          <mxGeometry x="540" y="230" width="80" height="80" as="geometry" />
        </mxCell>
        <mxCell id="DBiApwoINS6CAszhb8eR-10" value="" style="endArrow=classic;html=1;rounded=0;exitX=1;exitY=0.5;exitDx=0;exitDy=0;entryX=0.013;entryY=0.613;entryDx=0;entryDy=0;entryPerimeter=0;" edge="1" parent="1" source="DBiApwoINS6CAszhb8eR-2" target="DBiApwoINS6CAszhb8eR-4">
          <mxGeometry width="50" height="50" relative="1" as="geometry">
            <mxPoint x="400" y="430" as="sourcePoint" />
            <mxPoint x="360" y="220" as="targetPoint" />
          </mxGeometry>
        </mxCell>
        <mxCell id="DBiApwoINS6CAszhb8eR-11" value="" style="endArrow=classic;html=1;rounded=0;exitX=1;exitY=0.5;exitDx=0;exitDy=0;entryX=0.013;entryY=0.35;entryDx=0;entryDy=0;entryPerimeter=0;" edge="1" parent="1" source="DBiApwoINS6CAszhb8eR-1" target="DBiApwoINS6CAszhb8eR-3">
          <mxGeometry width="50" height="50" relative="1" as="geometry">
            <mxPoint x="400" y="430" as="sourcePoint" />
            <mxPoint x="450" y="380" as="targetPoint" />
          </mxGeometry>
        </mxCell>
        <mxCell id="DBiApwoINS6CAszhb8eR-12" value="" style="endArrow=classic;html=1;rounded=0;entryX=0.013;entryY=0.638;entryDx=0;entryDy=0;entryPerimeter=0;exitX=1;exitY=0.5;exitDx=0;exitDy=0;" edge="1" parent="1" source="DBiApwoINS6CAszhb8eR-3" target="DBiApwoINS6CAszhb8eR-5">
          <mxGeometry width="50" height="50" relative="1" as="geometry">
            <mxPoint x="400" y="430" as="sourcePoint" />
            <mxPoint x="450" y="380" as="targetPoint" />
          </mxGeometry>
        </mxCell>
        <mxCell id="DBiApwoINS6CAszhb8eR-13" value="" style="endArrow=classic;html=1;rounded=0;entryX=0;entryY=0.5;entryDx=0;entryDy=0;exitX=0.988;exitY=0.638;exitDx=0;exitDy=0;exitPerimeter=0;" edge="1" parent="1" source="DBiApwoINS6CAszhb8eR-4" target="DBiApwoINS6CAszhb8eR-5">
          <mxGeometry width="50" height="50" relative="1" as="geometry">
            <mxPoint x="400" y="430" as="sourcePoint" />
            <mxPoint x="450" y="380" as="targetPoint" />
          </mxGeometry>
        </mxCell>
        <mxCell id="DBiApwoINS6CAszhb8eR-14" value="w&lt;sub&gt;11&lt;/sub&gt;" style="text;html=1;align=center;verticalAlign=middle;whiteSpace=wrap;rounded=0;" vertex="1" parent="1">
          <mxGeometry x="210" y="140" width="40" height="30" as="geometry" />
        </mxCell>
        <mxCell id="DBiApwoINS6CAszhb8eR-15" value="w&lt;sub&gt;21&lt;/sub&gt;" style="text;html=1;align=center;verticalAlign=middle;whiteSpace=wrap;rounded=0;" vertex="1" parent="1">
          <mxGeometry x="210" y="210" width="40" height="30" as="geometry" />
        </mxCell>
        <mxCell id="DBiApwoINS6CAszhb8eR-16" value="w&lt;sub&gt;12&lt;/sub&gt;" style="text;html=1;align=center;verticalAlign=middle;whiteSpace=wrap;rounded=0;" vertex="1" parent="1">
          <mxGeometry x="210" y="280" width="40" height="30" as="geometry" />
        </mxCell>
        <mxCell id="DBiApwoINS6CAszhb8eR-17" value="w&lt;span style=&quot;font-size: 10px;&quot;&gt;22&lt;/span&gt;" style="text;html=1;align=center;verticalAlign=middle;whiteSpace=wrap;rounded=0;" vertex="1" parent="1">
          <mxGeometry x="210" y="360" width="40" height="30" as="geometry" />
        </mxCell>
        <mxCell id="DBiApwoINS6CAszhb8eR-18" value="w&lt;sub&gt;31&lt;/sub&gt;" style="text;html=1;align=center;verticalAlign=middle;whiteSpace=wrap;rounded=0;" vertex="1" parent="1">
          <mxGeometry x="450" y="190" width="40" height="30" as="geometry" />
        </mxCell>
        <mxCell id="DBiApwoINS6CAszhb8eR-19" value="w&lt;sub&gt;32&lt;/sub&gt;" style="text;html=1;align=center;verticalAlign=middle;whiteSpace=wrap;rounded=0;" vertex="1" parent="1">
          <mxGeometry x="450" y="330" width="40" height="30" as="geometry" />
        </mxCell>
        <mxCell id="DBiApwoINS6CAszhb8eR-20" value="b&lt;sub&gt;1&lt;/sub&gt;" style="text;html=1;align=center;verticalAlign=middle;whiteSpace=wrap;rounded=0;" vertex="1" parent="1">
          <mxGeometry x="310" y="140" width="40" height="30" as="geometry" />
        </mxCell>
        <mxCell id="DBiApwoINS6CAszhb8eR-21" value="b&lt;sub&gt;2&lt;/sub&gt;" style="text;html=1;align=center;verticalAlign=middle;whiteSpace=wrap;rounded=0;" vertex="1" parent="1">
          <mxGeometry x="320" y="310" width="40" height="30" as="geometry" />
        </mxCell>
        <mxCell id="DBiApwoINS6CAszhb8eR-22" value="b&lt;sub&gt;3&lt;/sub&gt;" style="text;html=1;align=center;verticalAlign=middle;whiteSpace=wrap;rounded=0;" vertex="1" parent="1">
          <mxGeometry x="510" y="230" width="40" height="30" as="geometry" />
        </mxCell>
        <mxCell id="DBiApwoINS6CAszhb8eR-24" value="σ ( h&lt;sub&gt;1&lt;/sub&gt;)&lt;sub&gt;&amp;nbsp;&lt;/sub&gt;" style="text;whiteSpace=wrap;html=1;" vertex="1" parent="1">
          <mxGeometry x="360" y="150" width="40" height="40" as="geometry" />
        </mxCell>
        <mxCell id="DBiApwoINS6CAszhb8eR-25" value="σ ( h&lt;sub&gt;2&lt;/sub&gt;)&lt;sub&gt;&amp;nbsp;&lt;/sub&gt;" style="text;whiteSpace=wrap;html=1;" vertex="1" parent="1">
          <mxGeometry x="360" y="340" width="40" height="40" as="geometry" />
        </mxCell>
        <mxCell id="DBiApwoINS6CAszhb8eR-26" value="A" style="text;html=1;align=center;verticalAlign=middle;whiteSpace=wrap;rounded=0;" vertex="1" parent="1">
          <mxGeometry x="140" y="155" width="40" height="30" as="geometry" />
        </mxCell>
        <mxCell id="DBiApwoINS6CAszhb8eR-27" value="B" style="text;html=1;align=center;verticalAlign=middle;whiteSpace=wrap;rounded=0;" vertex="1" parent="1">
          <mxGeometry x="140" y="340" width="40" height="30" as="geometry" />
        </mxCell>
        <mxCell id="DBiApwoINS6CAszhb8eR-28" value="σ ( o)&lt;sub&gt;&amp;nbsp;&lt;/sub&gt;" style="text;whiteSpace=wrap;html=1;" vertex="1" parent="1">
          <mxGeometry x="560" y="250" width="40" height="40" as="geometry" />
        </mxCell>
      </root>
    </mxGraphModel>
  </diagram>
</mxfile>
